<svg width="160" height="62" viewBox="0 0 160 62" fill="none" xmlns="http://www.w3.org/2000/svg">
<path d="M17.866 14.4392V20.9839H0.744417V14.4392H17.866ZM4.68362 6.15757H13.3375V37.7643C13.3375 38.6948 13.4305 39.4082 13.6166 39.9045C13.8027 40.4007 14.0819 40.7523 14.4541 40.9591C14.847 41.1452 15.3639 41.2382 16.005 41.2382C16.4392 41.2382 16.8424 41.2175 17.2146 41.1762C17.5868 41.1141 17.866 41.0521 18.0521 40.9901V47.7829C17.3697 48.0517 16.646 48.2585 15.8809 48.4032C15.1365 48.548 14.2473 48.6203 13.2134 48.6203C11.4764 48.6203 9.96691 48.2895 8.68486 47.6278C7.42349 46.9661 6.44127 45.9115 5.73821 44.464C5.03515 42.9959 4.68362 41.0728 4.68362 38.6948V6.15757ZM20.7816 32.3672V30.103C20.7816 27.4768 21.0918 25.1505 21.7122 23.1241C22.3532 21.0976 23.263 19.402 24.4417 18.0372C25.6203 16.6518 27.0368 15.6075 28.6911 14.9045C30.366 14.1807 32.2374 13.8189 34.3052 13.8189C36.3937 13.8189 38.2651 14.1807 39.9194 14.9045C41.5943 15.6075 43.0211 16.6518 44.1997 18.0372C45.3991 19.402 46.3193 21.0976 46.9603 23.1241C47.6013 25.1505 47.9218 27.4768 47.9218 30.103V32.3672C47.9218 34.9727 47.6013 37.2887 46.9603 39.3151C46.3193 41.3416 45.3991 43.0476 44.1997 44.433C43.0211 45.8184 41.6046 46.8627 39.9504 47.5658C38.2961 48.2688 36.4351 48.6203 34.3672 48.6203C32.2994 48.6203 30.428 48.2688 28.7531 47.5658C27.0988 46.8627 25.672 45.8184 24.4727 44.433C23.2734 43.0476 22.3532 41.3416 21.7122 39.3151C21.0918 37.2887 20.7816 34.9727 20.7816 32.3672ZM29.4665 30.103V32.3672C29.4665 33.9181 29.5699 35.2622 29.7767 36.3995C30.0041 37.5368 30.3246 38.4777 30.7382 39.2221C31.1725 39.9665 31.6894 40.5145 32.2891 40.866C32.8887 41.2175 33.5815 41.3933 34.3672 41.3933C35.153 41.3933 35.8561 41.2175 36.4764 40.866C37.0968 40.5145 37.6034 39.9665 37.9963 39.2221C38.4098 38.4777 38.7097 37.5368 38.8958 36.3995C39.1026 35.2622 39.206 33.9181 39.206 32.3672V30.103C39.206 28.5935 39.0922 27.2701 38.8648 26.1328C38.6373 24.9748 38.3168 24.0339 37.9032 23.3102C37.4897 22.5658 36.9727 22.0074 36.3524 21.6352C35.7527 21.2423 35.0703 21.0459 34.3052 21.0459C33.5401 21.0459 32.8577 21.2423 32.2581 21.6352C31.6791 22.0074 31.1725 22.5658 30.7382 23.3102C30.3246 24.0339 30.0041 24.9748 29.7767 26.1328C29.5699 27.2701 29.4665 28.5935 29.4665 30.103ZM54.1253 43.5645C54.1253 42.1998 54.5802 41.0624 55.4901 40.1526C56.3999 39.2221 57.6303 38.7568 59.1811 38.7568C60.732 38.7568 61.9624 39.2221 62.8722 40.1526C63.7821 41.0624 64.237 42.1998 64.237 43.5645C64.237 44.9293 63.7821 46.0666 62.8722 46.9764C61.9624 47.8863 60.732 48.3412 59.1811 48.3412C57.6303 48.3412 56.3999 47.8863 55.4901 46.9764C54.5802 46.0666 54.1253 44.9293 54.1253 43.5645ZM71.9293 0.357322H80.5831V40.2146L79.9628 48H71.9293V0.357322ZM98.0149 30.103V32.3052C98.0149 35.0347 97.7978 37.4127 97.3635 39.4392C96.95 41.4657 96.2986 43.1613 95.4094 44.5261C94.5409 45.8908 93.4243 46.9144 92.0596 47.5968C90.6948 48.2792 89.0819 48.6203 87.2208 48.6203C85.5459 48.6203 84.1088 48.2275 82.9094 47.4417C81.7101 46.6352 80.6969 45.5289 79.8697 44.1228C79.0633 42.696 78.4016 41.0314 77.8846 39.129C77.3883 37.206 77.0265 35.1071 76.799 32.8325V29.5757C77.0058 27.3424 77.3573 25.2643 77.8536 23.3412C78.3706 21.4181 79.0323 19.7535 79.8387 18.3474C80.6452 16.9206 81.6481 15.8143 82.8474 15.0285C84.0674 14.2221 85.5045 13.8189 87.1588 13.8189C89.0612 13.8189 90.6948 14.1704 92.0596 14.8735C93.4243 15.5558 94.5409 16.5794 95.4094 17.9442C96.2986 19.3089 96.95 21.0149 97.3635 23.062C97.7978 25.0885 98.0149 27.4355 98.0149 30.103ZM89.361 32.3052V30.103C89.361 28.5521 89.299 27.2184 89.1749 26.1017C89.0509 24.9851 88.8234 24.0546 88.4926 23.3102C88.1617 22.5658 87.6861 22.0074 87.0658 21.6352C86.4661 21.263 85.67 21.0769 84.6774 21.0769C83.7883 21.0769 83.0438 21.2527 82.4442 21.6042C81.8445 21.9351 81.3275 22.4313 80.8933 23.0931C80.4797 23.7341 80.1696 24.4992 79.9628 25.3883C79.7767 26.2568 79.6733 27.2184 79.6526 28.273V34.1352C79.6733 35.562 79.849 36.8234 80.1799 37.9194C80.5108 39.0153 81.038 39.8631 81.7618 40.4628C82.5062 41.0624 83.4988 41.3623 84.7395 41.3623C85.7113 41.3623 86.4971 41.1969 87.0968 40.866C87.6964 40.5352 88.1617 40.0079 88.4926 39.2841C88.8441 38.5604 89.0715 37.6299 89.1749 36.4926C89.299 35.3346 89.361 33.9388 89.361 32.3052ZM119.572 39.9355V14.4392H128.288V48H120.099L119.572 39.9355ZM120.565 33.0186L122.984 32.9566C122.984 35.2105 122.767 37.299 122.333 39.2221C121.898 41.1245 121.247 42.7787 120.378 44.1849C119.51 45.591 118.424 46.6869 117.122 47.4727C115.819 48.2378 114.278 48.6203 112.5 48.6203C111.135 48.6203 109.874 48.3929 108.716 47.938C107.579 47.4624 106.596 46.7283 105.769 45.7357C104.942 44.7225 104.291 43.4301 103.815 41.8586C103.36 40.2663 103.133 38.3536 103.133 36.1203V14.4392H111.849V36.2134C111.849 37.1232 111.931 37.909 112.097 38.5707C112.262 39.2117 112.49 39.739 112.779 40.1526C113.069 40.5662 113.41 40.866 113.803 41.0521C114.196 41.2175 114.64 41.3002 115.136 41.3002C116.501 41.3002 117.577 40.9487 118.362 40.2457C119.169 39.5219 119.737 38.5397 120.068 37.299C120.399 36.0376 120.565 34.6108 120.565 33.0186ZM143.052 44.1538L150.062 14.4392H159.119L148.077 53.0248C147.829 53.8726 147.488 54.7825 147.053 55.7543C146.619 56.7469 146.04 57.6774 145.316 58.5459C144.613 59.4351 143.724 60.1588 142.649 60.7171C141.574 61.2754 140.281 61.5546 138.772 61.5546C138.007 61.5546 137.386 61.5029 136.911 61.3995C136.456 61.3168 135.877 61.172 135.174 60.9653V54.2035C135.36 54.2035 135.536 54.2035 135.701 54.2035C135.887 54.2242 136.063 54.2345 136.228 54.2345C137.2 54.2345 137.976 54.1001 138.555 53.8313C139.134 53.5831 139.599 53.1902 139.95 52.6526C140.323 52.115 140.633 51.4429 140.881 50.6365L143.052 44.1538ZM141.253 14.4392L146.464 38.5087L147.643 48.3102L141.78 48.8685L131.948 14.4392H141.253Z" fill="#F7F5FA"/>
</svg>
